<?xml version="1.0" standalone="no"?>
<!DOCTYPE svg PUBLIC "-//W3C//DTD SVG 20010904//EN"
 "http://www.w3.org/TR/2001/REC-SVG-20010904/DTD/svg10.dtd">
<svg version="1.0" xmlns="http://www.w3.org/2000/svg"
 width="260.000000pt" height="260.000000pt" viewBox="0 0 260.000000 260.000000"
 preserveAspectRatio="xMidYMid meet">
<metadata>
Created by potrace 1.11, written by Peter Selinger 2001-2013
</metadata>
<g transform="translate(0.000000,260.000000) scale(0.100000,-0.100000)"
fill="#000000" stroke="none">
<path d="M448 2578 c-2 -17 -10 -23 -28 -24 -15 0 -24 -5 -22 -14 2 -7 0 -25
-3 -41 -5 -22 -13 -28 -38 -31 -28 -3 -32 -7 -40 -46 -8 -41 -10 -43 -40 -40
-26 2 -32 8 -38 34 -3 17 -9 36 -13 42 -8 13 -124 16 -189 6 l-37 -7 0 -208 0
-208 67 -3 66 -3 -2 -260 -2 -260 30 -23 c17 -12 31 -29 31 -36 0 -8 6 -16 14
-19 7 -3 16 -23 19 -46 7 -57 37 -131 53 -131 8 0 16 -12 19 -27 17 -79 41
-136 62 -144 15 -6 24 -20 28 -46 4 -21 11 -47 16 -58 5 -11 13 -32 19 -47 6
-17 17 -28 29 -28 21 0 31 -18 31 -59 0 -41 37 -111 59 -111 22 0 31 -19 31
-62 0 -16 9 -41 20 -55 11 -14 20 -32 20 -39 0 -8 9 -14 19 -14 21 0 31 -19
31 -61 0 -22 5 -29 19 -29 22 0 36 -16 44 -51 12 -48 58 -119 78 -119 22 0 39
-28 39 -64 0 -23 4 -26 35 -26 38 0 55 -20 55 -64 0 -23 4 -26 38 -26 43 0 72
-23 72 -57 0 -26 51 -33 260 -33 202 0 262 7 255 29 -9 30 19 54 71 60 45 6
49 8 49 33 1 32 21 58 46 58 12 0 25 15 38 45 11 26 27 45 35 45 9 0 16 4 16
9 0 4 11 24 24 44 13 19 27 49 31 66 4 17 14 37 23 43 20 15 62 101 62 126 0
22 29 64 30 43 0 -7 -4 -31 -10 -52 -5 -22 -15 -57 -20 -79 -6 -22 -16 -40
-23 -40 -12 -1 -57 -85 -57 -107 0 -25 -24 -63 -40 -63 -10 0 -23 -15 -33 -40
-8 -22 -24 -43 -34 -47 -10 -3 -30 -20 -45 -37 -24 -27 -27 -39 -28 -103 l0
-73 145 0 c122 0 145 2 145 15 0 9 9 15 25 15 22 0 25 4 25 38 0 46 8 59 40
63 18 3 26 12 31 37 4 19 12 39 18 45 6 6 11 21 11 33 0 12 11 35 24 51 14 16
34 56 46 88 l21 60 -6 -55 c-4 -30 -15 -66 -24 -80 -48 -68 -62 -111 -68 -210
l-6 -100 131 0 132 0 0 25 c0 14 4 25 8 25 4 0 12 15 17 33 8 25 15 32 35 32
25 0 25 1 28 98 3 93 4 97 25 97 51 0 58 18 61 135 1 61 5 117 9 125 3 8 7 26
9 40 2 14 9 24 16 22 9 -1 12 51 12 223 l0 225 -94 0 -94 0 -6 -35 c-4 -19
-11 -37 -16 -40 -6 -4 -10 155 -10 434 0 282 -4 450 -10 467 -6 15 -20 34 -30
41 -11 8 -22 29 -26 48 -3 20 -10 38 -15 41 -5 3 -9 18 -9 33 0 39 -46 141
-64 141 -16 0 -26 21 -26 55 0 13 -10 29 -25 39 -14 9 -25 25 -25 35 0 10 -9
28 -20 41 -11 13 -20 35 -20 50 0 29 -15 40 -55 40 -24 0 -35 17 -35 56 0 17
-6 24 -19 24 -33 0 -51 11 -51 31 0 18 -10 19 -171 19 l-171 0 6 -37 c4 -21 8
-49 9 -63 l2 -25 -91 0 c-101 0 -129 12 -121 52 l4 23 -202 0 -202 0 4 -24 c7
-35 -26 -49 -132 -56 l-89 -5 -1 -30 c0 -25 -6 -31 -43 -45 -27 -10 -50 -28
-62 -48 -10 -17 -31 -38 -45 -48 -14 -9 -25 -22 -25 -28 0 -7 -11 -23 -25 -36
-14 -13 -25 -33 -25 -44 0 -37 -12 -66 -26 -66 -8 0 -19 -12 -24 -27 -5 -16
-16 -41 -25 -56 -24 -45 -21 -416 4 -517 11 -41 18 -77 16 -79 -9 -9 -25 13
-25 34 0 13 -4 26 -8 29 -5 3 -14 44 -21 91 -7 47 -16 85 -20 85 -8 0 -31 118
-31 159 0 16 5 33 10 36 6 3 10 19 10 35 0 16 7 35 15 43 8 9 17 41 20 74 9
88 13 100 35 106 12 3 20 13 20 26 0 12 9 30 20 41 11 11 20 33 20 49 0 30 13
47 44 52 11 2 23 18 30 38 11 33 22 44 59 55 27 9 47 68 47 141 l0 65 -144 0
c-142 0 -145 0 -148 -22z m1238 -159 c16 -17 41 -37 56 -45 15 -8 35 -28 43
-44 9 -17 22 -30 30 -30 18 0 55 -39 55 -58 0 -8 14 -27 30 -42 17 -15 30 -37
30 -48 0 -11 6 -22 14 -25 8 -3 19 -22 26 -42 7 -21 21 -46 31 -56 11 -11 19
-29 19 -42 0 -13 5 -28 12 -35 7 -7 15 -36 19 -64 4 -29 10 -71 15 -93 7 -37
6 -39 -9 -26 -10 7 -17 28 -17 45 0 55 -54 201 -84 225 -8 6 -17 27 -20 45 -4
19 -13 37 -21 40 -8 3 -25 27 -39 53 -34 66 -165 199 -206 208 -33 7 -46 25
-36 50 8 22 19 19 52 -16z m-227 -237 c15 -15 30 -33 32 -40 2 -7 22 -15 44
-19 51 -8 65 -19 65 -54 0 -19 8 -34 23 -44 23 -15 87 -104 87 -121 0 -8 33
-80 52 -114 22 -39 29 -66 22 -90 -7 -24 -7 -23 -19 15 -19 62 -56 139 -71
148 -7 4 -18 26 -24 47 -8 28 -16 40 -29 40 -22 0 -36 16 -45 51 -4 21 -14 29
-43 36 -29 6 -43 17 -57 45 -20 35 -20 35 -105 43 -117 11 -188 11 -303 1 -97
-9 -98 -9 -98 -35 0 -35 -17 -51 -52 -51 -23 0 -28 -4 -28 -26 0 -35 -17 -64
-38 -64 -35 0 -41 -16 -53 -146 -9 -102 -9 -151 1 -225 23 -180 23 -166 7
-146 -8 9 -18 40 -21 68 -4 28 -18 92 -31 143 -24 88 -32 190 -17 212 4 6 15
13 25 17 22 8 39 52 36 97 -3 56 0 70 16 70 9 0 15 9 15 25 0 27 48 65 83 65
11 0 17 8 17 24 0 51 25 56 263 56 l219 0 27 -28z m-121 -335 c23 -18 14 -40
-13 -33 -14 3 -36 9 -49 12 -27 7 -125 -35 -163 -69 -20 -18 -23 -18 -23 -4 0
9 6 20 13 24 7 4 23 25 37 45 21 31 31 38 65 40 55 4 117 -3 133 -15z m92 -94
c0 -14 -2 -14 -20 2 -11 10 -20 22 -20 27 0 5 9 4 20 -2 11 -6 20 -18 20 -27z
m698 -322 c5 -124 -2 -191 -18 -191 -6 0 -10 68 -10 167 0 130 3 164 12 155 7
-7 14 -57 16 -131z m-863 -46 c0 -34 -3 -40 -23 -43 -35 -5 -92 54 -77 79 4 5
28 9 53 7 l47 -3 0 -40z m-689 -74 c4 -19 2 -31 -4 -31 -6 0 -13 15 -17 33 -4
17 -9 41 -12 52 -4 18 -4 18 11 -2 9 -12 19 -36 22 -52z m332 4 c7 -14 12 -31
12 -38 0 -7 9 -18 19 -24 11 -7 22 -26 26 -43 4 -16 16 -35 28 -42 28 -14 37
-27 37 -54 0 -18 8 -22 50 -28 27 -4 51 -10 54 -15 3 -4 -6 -19 -19 -31 -21
-19 -25 -33 -25 -78 0 -62 -23 -70 -28 -9 -2 28 -8 36 -25 39 -17 2 -24 13
-31 43 -16 75 -38 124 -62 140 -13 8 -24 24 -24 34 0 10 -9 38 -20 62 -11 24
-20 50 -20 57 0 21 16 13 28 -13z m628 -110 c-9 -18 -16 -38 -16 -44 0 -12
-20 -14 -44 -5 -22 8 -20 21 4 27 11 3 22 17 26 33 8 37 37 63 42 39 2 -9 -3
-31 -12 -50z m520 -322 c-3 -16 -9 -54 -13 -85 -3 -33 -12 -63 -21 -70 -13
-11 -14 -9 -8 22 4 19 10 53 12 75 8 67 14 85 25 85 7 0 9 -10 5 -27z m-611
-73 c3 -5 -1 -22 -8 -37 -13 -23 -25 -29 -83 -39 -111 -19 -201 7 -192 55 5
26 25 23 61 -8 46 -41 79 -40 130 4 39 34 80 45 92 25z m859 -147 c-10 -40
-14 -41 -14 -5 0 18 5 32 10 32 6 0 8 -11 4 -27z m-1254 -174 c0 -4 14 -9 31
-13 18 -3 46 -22 68 -46 l36 -40 105 0 c58 0 110 4 115 8 6 4 18 19 28 35 12
18 32 31 62 39 34 9 51 21 70 50 28 42 45 49 45 18 0 -20 -44 -70 -61 -70 -5
0 -9 -6 -9 -14 0 -7 -9 -25 -21 -40 -15 -19 -30 -26 -54 -26 -28 0 -37 -6 -50
-31 -40 -77 -189 -77 -233 1 -13 23 -24 30 -49 30 -23 0 -37 7 -50 26 -10 15
-35 44 -55 66 -21 22 -38 49 -38 61 1 20 3 19 30 -13 17 -19 30 -37 30 -41z"/>
<path d="M2121 2533 c1 -92 18 -137 53 -141 29 -4 52 -42 41 -70 -3 -7 4 -26
15 -42 11 -15 20 -33 20 -39 0 -6 11 -18 25 -27 19 -12 25 -25 25 -53 0 -48
19 -114 35 -124 8 -4 17 -22 21 -40 3 -17 15 -43 25 -56 11 -13 19 -34 19 -46
0 -19 7 -23 40 -28 22 -3 67 -3 100 0 l60 6 0 173 c0 144 -2 174 -14 174 -17
0 -36 79 -36 150 0 43 -3 50 -20 50 -11 0 -20 6 -20 14 0 7 -11 21 -25 30 -19
12 -25 25 -25 51 0 31 -3 35 -25 35 -20 0 -25 5 -25 25 l0 25 -145 0 -145 0 1
-67z"/>
<path d="M0 1215 l0 -215 25 0 c24 0 25 -2 25 -75 0 -79 10 -95 58 -95 24 0
32 -26 25 -77 -7 -58 10 -91 52 -99 34 -6 35 -7 35 -53 0 -51 33 -109 70 -123
15 -5 20 -17 20 -42 0 -25 6 -38 25 -50 14 -9 28 -29 31 -44 4 -15 12 -30 17
-33 5 -4 13 -24 16 -45 5 -32 11 -40 31 -42 32 -4 50 -28 50 -65 0 -19 9 -38
25 -53 14 -13 22 -29 19 -38 -4 -10 2 -15 18 -18 15 -2 24 -11 26 -25 3 -23 6
-23 138 -23 l134 0 0 78 c0 88 -14 150 -36 159 -8 3 -21 18 -30 34 -8 16 -21
29 -29 29 -8 0 -17 12 -21 27 -12 57 -15 62 -42 65 -24 3 -27 8 -30 42 -2 24
-13 52 -28 69 -13 16 -24 35 -24 43 0 8 -8 14 -19 14 -18 0 -31 25 -31 62 0 9
-11 28 -25 42 -14 14 -25 34 -25 44 0 11 -7 22 -15 26 -9 3 -15 18 -15 40 0
25 -6 38 -24 50 -13 8 -27 29 -31 45 -3 16 -13 35 -21 42 -8 6 -14 24 -14 40
0 15 -11 45 -25 65 -14 20 -25 42 -25 49 0 7 -7 15 -14 18 -8 3 -18 23 -21 44
-7 45 -34 113 -52 131 -7 7 -16 25 -19 40 -3 15 -14 50 -24 77 l-18 50 -91 3
-91 3 0 -216z"/>
<path d="M0 391 c0 -168 0 -170 23 -173 19 -3 22 -10 25 -61 3 -53 5 -58 25
-55 17 2 23 -3 25 -24 2 -16 9 -28 17 -28 8 0 17 -11 21 -25 6 -25 6 -25 130
-25 l124 0 0 110 c0 125 -20 186 -62 192 -19 2 -24 10 -26 41 -2 21 -14 54
-28 74 -13 20 -24 39 -24 43 0 4 -9 10 -19 13 -14 3 -21 15 -23 43 l-3 39
-102 3 -103 3 0 -170z"/>
</g>
</svg>
