<?xml version="1.0" encoding="UTF-8" standalone="no"?>
<svg
   xmlns:dc="http://purl.org/dc/elements/1.1/"
   xmlns:cc="http://creativecommons.org/ns#"
   xmlns:rdf="http://www.w3.org/1999/02/22-rdf-syntax-ns#"
   xmlns:svg="http://www.w3.org/2000/svg"
   xmlns="http://www.w3.org/2000/svg"
   id="svg8"
   version="1.1"
   viewBox="0 0 7.9379317 7.9375611"
   height="30.000231"
   width="30.001631">
  <defs
     id="defs2" />
  <metadata
     id="metadata5">
    <rdf:RDF>
      <cc:Work
         rdf:about="">
        <dc:format>image/svg+xml</dc:format>
        <dc:type
           rdf:resource="http://purl.org/dc/dcmitype/StillImage" />
        <dc:title></dc:title>
      </cc:Work>
    </rdf:RDF>
  </metadata>
  <g
     transform="translate(-77.748797,-242.68495)"
     id="layer1">
    <path
       id="path34"
       d="m 78.877494,249.94813 c -0.0315,-0.0797 -0.10887,-0.22045 -0.1719,-0.3128 -0.063,-0.0924 -0.14715,-0.25034 -0.18693,-0.35108 -0.0614,-0.15557 -0.085,-0.18463 -0.15629,-0.19284 l -0.084,-0.01 v -0.27273 -0.27273 h 0.18518 c 0.23296,0 0.28327,0.0274 0.34796,0.18991 0.0286,0.0718 0.0703,0.15125 0.0927,0.17643 0.0224,0.0252 0.10023,0.15971 0.17298,0.29894 0.0728,0.13923 0.16328,0.31154 0.20116,0.38292 0.0588,0.11077 0.066,0.15755 0.0491,0.31928 l -0.0198,0.18949 -0.18645,-1.1e-4 -0.18646,-1.2e-4 z m 1.38531,0.0828 c 0,-0.0343 -0.0584,-0.1388 -0.12975,-0.23222 -0.20963,-0.27442 -0.54188,-0.75638 -0.54188,-0.78603 -10e-6,-0.0151 -0.0481,-0.0999 -0.10695,-0.18848 -0.0588,-0.0886 -0.13449,-0.2254 -0.16818,-0.30398 -0.0337,-0.0786 -0.088,-0.17693 -0.12078,-0.21856 -0.0327,-0.0416 -0.0866,-0.14812 -0.11976,-0.23664 -0.0331,-0.0885 -0.0956,-0.21304 -0.13877,-0.2767 -0.0432,-0.0637 -0.0977,-0.18011 -0.12102,-0.25875 -0.0234,-0.0786 -0.0851,-0.21849 -0.13714,-0.31075 -0.0521,-0.0923 -0.12563,-0.27663 -0.16346,-0.40969 -0.0629,-0.22123 -0.076,-0.24275 -0.15274,-0.25158 l -0.084,-0.01 v -0.29906 -0.29906 l 0.17211,-0.0202 c 0.23525,-0.0277 0.28449,0.0106 0.37341,0.29011 0.0395,0.12399 0.096,0.26665 0.12568,0.31702 0.0297,0.0504 0.084,0.17995 0.12067,0.28796 0.0367,0.108 0.0904,0.23164 0.11925,0.27476 0.0668,0.0997 0.15723,0.29812 0.1579,0.34655 2.8e-4,0.0204 0.0621,0.13953 0.13738,0.2647 0.0753,0.12516 0.13687,0.24732 0.13687,0.27146 0,0.0241 0.053,0.1278 0.11769,0.23036 0.0647,0.10256 0.1284,0.22081 0.14149,0.26279 0.0131,0.042 0.0614,0.13128 0.10731,0.19844 0.0459,0.0672 0.12309,0.18529 0.17144,0.2625 0.0932,0.14877 0.32684,0.49041 0.45732,0.66863 0.0615,0.084 0.0745,0.12965 0.0608,0.2137 -0.01,0.0588 -0.0176,0.14463 -0.0177,0.19081 -3.4e-4,0.0829 -0.003,0.0839 -0.19878,0.0839 -0.17947,0 -0.19843,-0.006 -0.19843,-0.0624 z m 3.46637,-0.13397 c -0.0239,-0.22287 -0.0187,-0.23669 0.19387,-0.51396 0.0818,-0.10676 0.17944,-0.25508 0.21693,-0.32959 0.0375,-0.0745 0.0851,-0.15609 0.10584,-0.18127 0.0207,-0.0252 0.069,-0.12823 0.10727,-0.22897 0.0383,-0.10075 0.10938,-0.27436 0.15801,-0.38581 0.0486,-0.11146 0.10786,-0.30379 0.13161,-0.42741 0.0238,-0.12362 0.0777,-0.36214 0.11994,-0.53005 0.10169,-0.4044 0.14066,-0.81961 0.13998,-1.49152 -6.3e-4,-0.62056 -0.0506,-1.04948 -0.16235,-1.39346 -0.0409,-0.12593 -0.0842,-0.27704 -0.0963,-0.33581 -0.0292,-0.14258 -0.30034,-0.64376 -0.46642,-0.86228 -0.0733,-0.0965 -0.24914,-0.2814 -0.39073,-0.41098 l -0.25744,-0.23561 v -0.20723 -0.20722 h 0.22897 0.22896 v 0.0857 c 0,0.0664 0.0298,0.10673 0.13237,0.17901 0.12987,0.0915 0.39696,0.39156 0.59211,0.66511 0.14138,0.19818 0.36527,0.63625 0.41938,0.82057 0.19454,0.66265 0.22967,0.81735 0.26269,1.15655 0.0413,0.42387 0.021,1.55618 -0.034,1.90134 -0.0187,0.11754 -0.0598,0.29895 -0.0913,0.40313 -0.0315,0.10418 -0.0864,0.34364 -0.12192,0.53212 -0.0416,0.2204 -0.10202,0.4214 -0.16932,0.56323 -0.0576,0.1213 -0.10466,0.24225 -0.10466,0.26879 0,0.12405 -0.49279,0.9668 -0.65136,1.11391 -0.043,0.0399 -0.0868,0.11201 -0.0974,0.16028 -0.0185,0.0843 -0.0261,0.0877 -0.19646,0.0877 h -0.17719 z m 1.19214,-0.007 c -0.02,-0.19493 -0.0158,-0.2136 0.10111,-0.4503 0.0671,-0.13582 0.14421,-0.33624 0.17142,-0.44538 0.0272,-0.10914 0.0823,-0.26861 0.12248,-0.35439 0.0402,-0.0858 0.10056,-0.30558 0.13423,-0.48846 0.0755,-0.41016 0.22056,-0.92967 0.28857,-1.03346 0.064,-0.0977 0.0868,-0.0972 0.29962,0.006 l 0.1739,0.0844 0.002,0.18357 c 10e-4,0.16032 -0.007,0.18738 -0.0654,0.2137 -0.0788,0.0355 -0.0985,0.0972 -0.17994,0.56439 -0.0337,0.1931 -0.0996,0.44725 -0.14663,0.56479 -0.047,0.11753 -0.1028,0.28926 -0.12405,0.38161 -0.0213,0.0924 -0.0933,0.28348 -0.16006,0.42473 -0.0668,0.14125 -0.1372,0.32328 -0.1565,0.40451 l -0.0351,0.14768 h -0.20226 -0.20226 z m -3.11681,-0.11478 c -0.19593,-0.0877 -0.4553,-0.26528 -0.63568,-0.43527 -0.25089,-0.23642 -0.61844,-0.73373 -0.78376,-1.06044 -0.0502,-0.0993 -0.1111,-0.20237 -0.13522,-0.22903 -0.0241,-0.0267 -0.0871,-0.13774 -0.13987,-0.24684 -0.0528,-0.10911 -0.1637,-0.32202 -0.24646,-0.47314 -0.0827,-0.15112 -0.19166,-0.36199 -0.24202,-0.46861 -0.0504,-0.10662 -0.1182,-0.23126 -0.15076,-0.27698 -0.0326,-0.0457 -0.0941,-0.17582 -0.13672,-0.2891 -0.0426,-0.11328 -0.10534,-0.24502 -0.13933,-0.29276 -0.034,-0.0477 -0.0953,-0.21507 -0.13623,-0.37186 -0.0409,-0.15678 -0.0976,-0.34689 -0.12588,-0.42245 -0.0633,-0.16909 -0.0962,-0.959 -0.0477,-1.14483 0.0841,-0.32193 0.274,-0.80749 0.36295,-0.92808 0.0545,-0.0739 0.0991,-0.15168 0.0991,-0.17289 0,-0.0476 0.32794,-0.48988 0.43828,-0.59107 0.0444,-0.0407 0.0807,-0.10596 0.0807,-0.14501 0,-0.068 0.01,-0.071 0.22897,-0.071 h 0.22896 v 0.0878 c 0,0.0483 0.008,0.12856 0.0181,0.1784 0.0161,0.0805 -0.01,0.12284 -0.23168,0.3778 -0.13739,0.15794 -0.2708,0.32837 -0.29646,0.37875 -0.0256,0.0504 -0.0708,0.11906 -0.10031,0.15264 -0.0295,0.0336 -0.0779,0.13662 -0.10747,0.22897 -0.0296,0.0924 -0.0773,0.21599 -0.10602,0.27476 -0.16043,0.32824 -0.1624,0.9542 -0.005,1.43801 0.0526,0.16125 0.0957,0.31469 0.0957,0.34097 0,0.0263 0.0534,0.15538 0.11869,0.28687 0.0653,0.13149 0.15026,0.31164 0.18885,0.40032 0.0386,0.0887 0.0875,0.17561 0.1086,0.19316 0.0211,0.0176 0.0606,0.0985 0.0876,0.17999 0.0271,0.0815 0.0899,0.20434 0.13974,0.27309 0.0498,0.0687 0.118,0.19838 0.15156,0.28808 0.0336,0.0897 0.0879,0.18742 0.1208,0.21717 0.0329,0.0298 0.0885,0.13123 0.12359,0.22549 0.0351,0.0943 0.0957,0.20573 0.13474,0.24771 0.039,0.042 0.10567,0.14588 0.14814,0.23089 0.0425,0.085 0.0999,0.17338 0.12763,0.19639 0.0277,0.023 0.0762,0.0925 0.1078,0.15433 0.1253,0.24562 0.62769,0.70551 0.83596,0.76524 0.22496,0.0645 0.56605,0.0176 0.72211,-0.0992 0.25386,-0.19013 0.55237,-0.50378 0.62442,-0.65608 0.0418,-0.0883 0.0899,-0.16918 0.10687,-0.17968 0.0501,-0.031 0.14216,-0.23426 0.1658,-0.36604 0.0121,-0.0672 0.065,-0.19768 0.11763,-0.29003 0.0879,-0.15416 0.0973,-0.19799 0.11527,-0.53531 0.0151,-0.28355 0.035,-0.402 0.0874,-0.51899 0.0554,-0.12362 0.071,-0.22846 0.0851,-0.56818 0.0177,-0.42949 0.007,-0.52385 -0.14689,-1.28162 -0.0995,-0.49016 -0.47727,-1.13303 -0.78392,-1.33396 -0.0795,-0.0521 -0.17251,-0.11556 -0.20663,-0.14099 -0.0991,-0.0739 -0.64859,-0.20033 -0.86839,-0.1998 -0.19053,4.6e-4 -0.66418,0.0844 -0.82498,0.14625 -0.042,0.0161 -0.15774,0.0962 -0.25726,0.17791 -0.15684,0.12878 -0.20147,0.19125 -0.33515,0.46911 l -0.15421,0.32056 0.001,0.47319 0.001,0.4732 0.12925,0.38161 c 0.0711,0.20989 0.17489,0.47778 0.23069,0.59531 0.0558,0.11754 0.16662,0.35109 0.24627,0.51899 0.29907,0.63041 0.41465,0.83443 0.61753,1.09014 0.2,0.25208 0.41072,0.40436 0.55879,0.40382 0.18625,-6.7e-4 0.45112,-0.18314 0.61997,-0.42709 0.18106,-0.26161 0.20783,-0.32465 0.21967,-0.51735 0.005,-0.084 0.0393,-0.23507 0.0758,-0.33581 0.10107,-0.27867 0.11946,-0.86375 0.0374,-1.19063 -0.0337,-0.13433 -0.0781,-0.33734 -0.0986,-0.45115 -0.0215,-0.11916 -0.0676,-0.24865 -0.10874,-0.30529 -0.0393,-0.0541 -0.0984,-0.14707 -0.13119,-0.20659 -0.0606,-0.10979 -0.26896,-0.31846 -0.40331,-0.40385 -0.10134,-0.0644 -0.2993,-0.0919 -0.47565,-0.0662 -0.12304,0.018 -0.17366,0.0475 -0.30469,0.1778 -0.17937,0.17832 -0.24218,0.34662 -0.212,0.56803 0.0103,0.0757 0.0274,0.22013 0.038,0.32088 0.0106,0.10074 0.043,0.21751 0.0721,0.25949 0.0291,0.042 0.0877,0.14501 0.13023,0.22897 0.15553,0.30676 0.3662,0.41975 0.52613,0.28218 0.0729,-0.0627 0.0887,-0.10314 0.0996,-0.25468 0.0108,-0.15079 0.002,-0.19383 -0.0534,-0.2641 -0.0731,-0.0926 -0.16728,-0.10616 -0.25847,-0.0372 -0.0805,0.0609 -0.18033,0.0564 -0.24129,-0.011 -0.0379,-0.0419 -0.0505,-0.11515 -0.0505,-0.29294 0,-0.37669 0.10913,-0.49186 0.46402,-0.48973 0.14658,8.8e-4 0.19159,0.0153 0.28561,0.0916 0.1843,0.14952 0.28256,0.31399 0.33341,0.5581 0.0965,0.46313 0.0427,0.77559 -0.17956,1.04376 -0.13533,0.16327 -0.16608,0.18406 -0.31919,0.21585 -0.19063,0.0396 -0.45603,0.0182 -0.58172,-0.0467 -0.15135,-0.0783 -0.43161,-0.44437 -0.58957,-0.77013 -0.13168,-0.27157 -0.15501,-0.34938 -0.18456,-0.61566 -0.0506,-0.45576 -0.008,-0.67935 0.18129,-0.95763 0.0818,-0.12013 0.22509,-0.2773 0.32146,-0.35265 0.15253,-0.11927 0.2022,-0.14002 0.40498,-0.16924 0.26598,-0.0383 0.68505,0.007 0.7923,0.0861 0.035,0.0258 0.12555,0.0869 0.20113,0.13575 0.17123,0.11077 0.3935,0.36535 0.49434,0.56621 0.0421,0.084 0.10462,0.20759 0.13882,0.27476 0.0342,0.0672 0.0782,0.20454 0.0978,0.30528 0.0196,0.10075 0.0719,0.32743 0.11629,0.50373 0.1009,0.40086 0.11791,0.99117 0.033,1.14596 -0.0606,0.11041 -0.14759,0.51211 -0.14759,0.68116 0,0.0953 -0.0253,0.15067 -0.12294,0.26841 -0.0676,0.0816 -0.1381,0.19856 -0.15662,0.25995 -0.0212,0.0703 -0.10844,0.18548 -0.23577,0.3113 -0.16181,0.15987 -0.25078,0.21966 -0.44633,0.29991 -0.33508,0.13752 -0.50651,0.13497 -0.79375,-0.0118 -0.21933,-0.11207 -0.59531,-0.46101 -0.59531,-0.55249 0,-0.0249 -0.0433,-0.0913 -0.0963,-0.14766 -0.053,-0.0564 -0.12961,-0.17801 -0.17036,-0.27036 -0.0408,-0.0924 -0.10557,-0.20225 -0.14404,-0.24423 -0.0385,-0.042 -0.0948,-0.1572 -0.12516,-0.25605 -0.0304,-0.0988 -0.0851,-0.21563 -0.12152,-0.2595 -0.0365,-0.0439 -0.0967,-0.17175 -0.13382,-0.28418 -0.0371,-0.11243 -0.0921,-0.23607 -0.1222,-0.27476 -0.0742,-0.0954 -0.32705,-0.90246 -0.3713,-1.18512 -0.0208,-0.13281 -0.0288,-0.3691 -0.0192,-0.5643 0.0139,-0.28227 0.0337,-0.38307 0.12414,-0.63207 0.13598,-0.37441 0.14561,-0.39196 0.3581,-0.65274 0.44807,-0.5499 1.2967,-0.77537 2.19613,-0.5835 0.25555,0.0545 0.36729,0.0965 0.54661,0.2052 0.25459,0.15436 0.6256,0.4874 0.69642,0.62512 0.0259,0.0504 0.0761,0.12658 0.11149,0.16934 0.12702,0.15336 0.34616,0.6523 0.39986,0.91039 0.19386,0.93179 0.21911,1.18515 0.16928,1.6984 -0.0576,0.59347 -0.20552,1.37275 -0.30363,1.59979 -0.0479,0.11078 -0.10416,0.25505 -0.1251,0.3206 -0.0448,0.14024 -0.32658,0.67347 -0.43087,0.81533 -0.0399,0.0543 -0.16873,0.19592 -0.28629,0.31477 -0.16541,0.16723 -0.27932,0.24908 -0.50372,0.36194 l -0.28999,0.14584 -0.33581,-0.002 c -0.21099,-10e-4 -0.36987,-0.0173 -0.42741,-0.043 z m 0.15265,-2.28321 c -0.1403,-0.0492 -0.19844,-0.11478 -0.19844,-0.22392 0,-0.16892 0.0766,-0.22673 0.36694,-0.27695 0.20139,-0.0348 0.28445,-0.0653 0.37393,-0.13698 0.14274,-0.11441 0.20959,-0.0985 0.29282,0.0697 l 0.0619,0.12515 -0.0887,0.1757 c -0.0845,0.16736 -0.0977,0.17875 -0.27897,0.23996 -0.20499,0.0692 -0.38368,0.0784 -0.5295,0.0273 z m 3.79334,-3.37467 c -0.0261,-0.0294 -0.0838,-0.14272 -0.12821,-0.25186 -0.0444,-0.10915 -0.0937,-0.22592 -0.10965,-0.2595 -0.0159,-0.0336 -0.056,-0.15048 -0.0892,-0.25978 -0.0331,-0.1093 -0.0951,-0.24592 -0.13762,-0.30359 -0.0426,-0.0577 -0.0774,-0.11757 -0.0774,-0.1331 0,-0.0155 -0.0488,-0.10859 -0.10848,-0.20681 -0.10267,-0.16901 -0.10736,-0.18842 -0.0876,-0.3627 l 0.0208,-0.18414 h 0.20976 0.20976 v 0.0905 c 0,0.0571 0.0339,0.12912 0.0917,0.195 0.0504,0.0575 0.11052,0.15754 0.13349,0.2224 0.023,0.0648 0.0866,0.19348 0.14139,0.28583 0.0548,0.0924 0.11859,0.25034 0.14176,0.35108 0.0622,0.27012 0.10138,0.34971 0.1824,0.37005 0.065,0.0163 0.0725,0.035 0.0725,0.18278 0,0.14602 -0.007,0.1646 -0.0631,0.1646 -0.0347,0 -0.10813,0.0343 -0.16316,0.0763 -0.11814,0.0901 -0.17463,0.0955 -0.23918,0.0229 z m -7.47207,-0.84584 c 0,-0.25552 0.001,-0.26083 0.0738,-0.26083 0.0515,0 0.0939,-0.0324 0.1399,-0.1069 0.0665,-0.10767 0.17349,-0.15929 0.26068,-0.12583 0.0259,0.01 0.0729,0.0756 0.10439,0.14596 0.0563,0.12571 0.0562,0.13047 -0.004,0.28286 -0.12689,0.3234 -0.10812,0.30662 -0.3542,0.3166 l -0.22103,0.009 z"
       style="fill:#282828;stroke-width:0.03052885" />
  </g>
</svg>
